# xmcd
#
# Track frame offsets:
#	150
#	14878
#	39266
#	60584
#	83142
#	94862
#	114226
#	126731
#	147580
#	170407
#	189853
#
# Disc length: 3176 seconds
#
# Revision: 6
# Processed by: cddbd v1.5.2PL0 Copyright (c) Steve Scherf et al.
# Submitted via: EasyCDDAExtractor 12.0.4.1
#
DISCID=960c660b
DTITLE=Trai Bhumiratna - The Third Person
DYEAR=2006
DGENRE=Pop
TTITLE0=Everyday
TTITLE1=ส่งแค่นี้
TTITLE2=พื้นที่เล็กๆ
TTITLE3=ยิ้มให้ฉันได้ไหม
TTITLE4=ดั่งชิงช้าสวรรค์
TTITLE5=พิจิกา
TTITLE6=เรา
TTITLE7=ไม่มีเหตุผล
TTITLE8=พ่อ
TTITLE9=โลกที่เธอไม่ให้ฉันเข้าไป
TTITLE10=ก้าวต่อไป
EXTD=
EXTT0=
EXTT1=
EXTT2=
EXTT3=
EXTT4=
EXTT5=
EXTT6=
EXTT7=
EXTT8=
EXTT9=
EXTT10=
PLAYORDER=
